<?xml version="1.0" encoding="iso-8859-1"?>
<!-- Generator: Adobe Illustrator 23.0.0, SVG Export Plug-In . SVG Version: 6.00 Build 0)  -->
<svg version="1.1" id="Layer_1" xmlns="http://www.w3.org/2000/svg" xmlns:xlink="http://www.w3.org/1999/xlink" x="0px" y="0px"
	 viewBox="-49 141 512 512" style="enable-background:new -49 141 512 512;" xml:space="preserve">
<rect x="-17.653" y="202.649" style="fill:#E5E5E5;" width="449.306" height="296.751"/>
<path style="fill:#E4EAEF;" d="M431.653,202.649v15.673c-1.045,0-1.045,0-2.09,0H-15.563c-1.045,0-1.045,0-2.09,0v-15.673H431.653z"
	/>
<path style="fill:#043363;" d="M151.62,302.959c0,17.763-6.269,33.437-16.718,45.976c-13.584,16.718-34.482,28.212-57.469,28.212
	c-40.751,0-74.188-33.437-74.188-74.188s33.437-74.188,74.188-74.188S151.62,262.208,151.62,302.959z"/>
<path style="fill:#F86407;" d="M151.62,302.959H77.433v-74.188C118.184,228.771,151.62,262.208,151.62,302.959z"/>
<path style="fill:#ACB3BA;" d="M151.62,302.959c0,17.763-6.269,33.437-16.718,45.976l-57.469-45.976H151.62z"/>
<rect x="355.376" y="306.094" style="fill:#F86407;" width="24.033" height="135.837"/>
<rect x="308.355" y="334.306" style="fill:#043363;" width="24.033" height="108.669"/>
<rect x="262.38" y="362.518" style="fill:#CCCBCB;" width="24.033" height="79.412"/>
<rect x="216.404" y="299.824" style="fill:#F86407;" width="24.033" height="142.106"/>
<rect x="169.384" y="392.82" style="fill:#043363;" width="24.033" height="49.11"/>
<rect x="138.037" y="454.469" style="fill:#043363;" width="272.718" height="24.033"/>
<g>
	<polygon style="fill:#043363;" points="196.551,506.714 170.429,570.453 138.037,647.776 74.298,647.776 105.645,570.453 
		132.812,506.714 	"/>
	<polygon style="fill:#043363;" points="339.702,647.776 275.963,647.776 243.571,570.453 217.449,506.714 281.188,506.714 
		308.355,570.453 	"/>
</g>
<g>
	<polygon style="fill:#043363;" points="132.812,506.714 196.551,506.714 170.429,570.453 105.645,570.453 	"/>
	<polygon style="fill:#043363;" points="308.355,570.453 243.571,570.453 217.449,506.714 281.188,506.714 	"/>
</g>
<g>
	<path style="fill:#F86407;" d="M-15.563,202.649h445.126c15.673,0,28.212-12.539,28.212-28.212s-12.539-28.212-28.212-28.212
		H-15.563c-15.673,0-28.212,12.539-28.212,28.212S-31.237,202.649-15.563,202.649z"/>
	<path style="fill:#F86407;" d="M429.563,499.4H-15.563c-15.673,0-28.212,12.539-28.212,28.212s12.539,28.212,28.212,28.212h445.126
		c15.673,0,28.212-12.539,28.212-28.212S445.237,499.4,429.563,499.4z"/>
</g>
</svg>
