<?xml version="1.0" encoding="iso-8859-1"?>
<!-- Generator: Adobe Illustrator 23.0.0, SVG Export Plug-In . SVG Version: 6.00 Build 0)  -->
<svg version="1.1" id="Layer_1" xmlns="http://www.w3.org/2000/svg" xmlns:xlink="http://www.w3.org/1999/xlink" x="0px" y="0px"
	 viewBox="-49 141 512 512" style="enable-background:new -49 141 512 512;" xml:space="preserve">
<path style="fill:#CCCBCB;" d="M436.878,146.224H-22.878c-11.494,0-20.898,9.404-20.898,20.898v65.829h501.551v-65.829
	C457.776,155.629,448.371,146.224,436.878,146.224z"/>
<rect x="-44.089" y="233.672" style="fill:#CCCBCB;" width="501.551" height="289.437"/>
<rect x="-17.967" y="259.794" style="fill:#F2F2F2;" width="449.306" height="237.192"/>
<circle style="fill:#F86407;" cx="4.29" cy="190.11" r="21.943"/>
<circle style="fill:#ACB3BA;" cx="63.849" cy="190.11" r="21.943"/>
<circle style="fill:#043363;" cx="123.408" cy="190.11" r="21.943"/>
<path style="fill:#ACB3BA;" d="M402.396,167.122H224.763c-12.539,0-21.943,10.449-21.943,21.943
	c0,11.494,10.449,21.943,21.943,21.943h177.633c12.539,0,21.943-10.449,21.943-21.943
	C424.339,177.571,413.89,167.122,402.396,167.122z"/>
<path style="fill:#F86407;" d="M376.273,478.502c0,94.041-76.278,169.273-169.273,169.273c-94.041,0-169.273-76.278-169.273-169.273
	c0-34.482,10.449-66.873,28.212-94.041c2.09-2.09,3.135-5.224,5.224-7.314c25.078-33.437,60.604-56.424,103.445-64.784h1.045
	c10.449-2.09,20.898-3.135,31.347-3.135c4.18,0,8.359,0,12.539,0c5.224,0,10.449,1.045,15.673,2.09
	c68.963,11.494,124.343,64.784,137.926,132.702c0,2.09,1.045,3.135,1.045,5.224C375.229,458.649,376.273,468.053,376.273,478.502z"
	/>
<g>
	<path style="fill:#043363;" d="M197.596,340.576c0,5.224-8.359,6.269-12.539,7.314c-3.135,1.045-6.269,4.18-9.404,7.314
		c-6.269,6.269-13.584,11.494-21.943,15.673c-8.359,4.18-18.808,7.314-25.078,0c18.808-8.359,33.437-25.078,40.751-44.931
		c-9.404,5.225-16.718,13.584-24.033,19.853c-9.404,7.314-19.853,13.584-28.212,21.943s-15.673,18.808-15.673,31.347
		c0-6.269-4.18-13.584-10.449-16.718c-5.224-4.18-12.539-5.224-19.853-5.224c0,0,0,0-1.045,0
		c25.078-33.437,60.604-56.424,103.445-64.784h1.045c2.09,8.359,7.314,16.718,14.629,20.898
		C194.461,334.306,197.596,337.441,197.596,340.576z"/>
	<path style="fill:#043363;" d="M235.212,311.318c4.18,2.09,8.359,5.224,11.494,8.359c1.045,1.045,1.045,2.09,1.045,3.135
		c-1.045,3.135-5.225,2.09-8.359,4.18c-5.225,2.09-3.135,9.404,1.045,12.539c4.18,3.135,9.404,3.135,14.629,6.269
		c2.09,1.045,3.135,2.09,3.135,4.18c0,1.045-1.045,2.09-2.09,3.135c-5.224,6.269-11.494,12.539-16.718,18.808
		c-1.045,1.045-3.135,3.135-5.224,4.18c-2.09,1.045-5.224,1.045-8.359,1.045c-10.449,0-24.033,2.09-27.167,12.539
		c-1.045,2.09-1.045,5.224-2.09,7.314c-2.09,2.09-4.18,2.09-6.269,4.18c-2.09,3.135,1.045,7.314,1.045,11.494
		c1.045,6.269-6.269,11.494-11.494,9.404c0-6.269,0-13.584-1.045-19.853c0-1.045,0-2.09-1.045-3.135
		c-1.045-1.045-2.09-1.045-3.135-2.09c-6.269-2.09-13.584-3.135-18.808,2.09c-4.18,5.224-2.09,12.539,1.045,17.763
		c3.135,5.224,8.359,10.449,8.359,17.763c0,3.135-1.045,7.314-4.18,7.314c-4.18,1.045-7.314-5.224-7.314-9.404
		c-4.18,11.494-6.269,26.122-4.18,39.706c-9.404,2.09-18.808,5.224-28.212,7.314c-3.135,1.045-7.314,2.09-9.404,5.224
		c-2.09,3.135-2.09,6.269-2.09,9.404c0,11.494,3.135,22.988,8.359,33.437c2.09,3.135,4.18,7.314,7.314,9.404
		c9.404,6.269,21.943,3.135,32.392,6.269c9.404,2.09,16.718,9.404,20.898,17.763c4.18,8.359,7.314,17.763,9.404,27.167
		c1.045,4.18,2.09,8.359,5.225,11.494c3.135,3.135,9.404,4.18,13.584,5.224c8.359,1.045,17.763,3.135,25.078-2.09
		c6.269-3.135,10.449-10.449,17.763-13.584c4.18-2.09,10.449-1.045,14.629-2.09c5.224-1.045,10.449-5.224,8.359-10.449
		c-1.045-4.18-7.314-8.359-6.269-12.539c1.045-3.135,5.224-4.18,8.359-5.224c13.584-5.224,21.943-22.988,14.629-36.571
		c-1.045-2.09-2.09-4.18-3.135-6.269c0-7.314,9.404-9.404,14.629-14.629c4.18-5.224,4.18-11.494,5.224-18.808
		c1.045-6.269,3.135-13.584,9.404-15.673c6.269-2.09,12.539,3.135,15.673,8.359s6.269,11.494,11.494,14.629
		c0-11.494,0-22.988,0-33.437c0-4.18,0-8.359,3.135-11.494c4.18-5.224,12.539-4.18,18.808-2.09c2.09,0,4.18,1.045,6.269,1.045
		C359.555,376.102,304.176,322.812,235.212,311.318z M268.649,421.033L268.649,421.033c2.09,0,4.18,0,6.269,0
		c-1.045,4.18,0,8.359,3.135,11.494c1.045,1.045,3.135,2.09,4.18,4.18c3.135,3.135,4.18,8.359,2.09,12.539
		c-3.135,0-7.314,0-10.449,0c-3.135-1.045-7.314-3.135-8.359-6.269c-1.045-2.09-1.045-4.18-1.045-6.269
		C263.424,430.437,263.424,424.167,268.649,421.033z M218.494,479.547c-5.224-1.045-10.449-4.18-15.673-7.314
		c-7.314-4.18-15.673-6.269-22.988-6.269c-3.135,0-6.269,0-8.359,0c-3.135-1.045-5.224-2.09-6.269-5.224
		c-1.045-3.135,1.045-7.314,4.18-9.404s6.269-3.135,9.404-5.224l1.045-5.224c6.269,6.269,14.629,11.494,22.988,14.629
		c4.18,2.09,8.359,3.135,12.539,3.135c4.18,0,9.404,0,13.584,0c1.045,0,3.135,0,4.18,0c3.135,0,6.269,0,9.404-1.045
		c4.18,0,7.314-1.045,10.449-3.135c1.045,4.18-1.045,9.404-4.18,12.539c-3.135,3.135-7.314,5.224-12.539,7.314
		C232.078,477.457,224.763,480.592,218.494,479.547z M284.322,512.984c0,1.045-1.045,2.09-2.09,3.135
		c-1.045,0-1.045,1.045-2.09,1.045c-7.314,1.045-15.673,2.09-20.898-3.135c-3.135-2.09-4.18-5.224-6.269-8.359
		c-2.09-4.18-4.18-7.314-6.269-11.494c-2.09-4.18-4.18-8.359-3.135-12.539c3.135,0,7.314,0,10.449,1.045l1.045,1.045
		c-1.045,3.135,0,6.269,2.09,8.359c2.09,2.09,5.224,3.135,7.314,4.18c2.09,1.045,4.18,2.09,7.314,3.135
		c3.135,1.045,6.269,3.135,9.404,5.224C283.278,505.669,284.322,508.804,284.322,512.984z M295.816,476.412
		c-1.045,1.045-1.045,1.045-2.09,1.045c-6.269,2.09-14.629-3.135-15.673-10.449l1.045-1.045c5.224,0,10.449,0,14.629,0
		c1.045,0,2.09,0,2.09,1.045c1.045,1.045,1.045,2.09,1.045,2.09C297.906,472.233,297.906,475.367,295.816,476.412z"/>
</g>
</svg>
