<?xml version="1.0" encoding="iso-8859-1"?>
<!-- Generator: Adobe Illustrator 23.0.0, SVG Export Plug-In . SVG Version: 6.00 Build 0)  -->
<svg version="1.1" id="Layer_1" xmlns="http://www.w3.org/2000/svg" xmlns:xlink="http://www.w3.org/1999/xlink" x="0px" y="0px"
	 viewBox="-49 141 512 512" style="enable-background:new -49 141 512 512;" xml:space="preserve">
<path style="fill:#FFD15C;" d="M39.816,647.776h311.38v-90.906H39.816c-1.045,0-3.135,0-4.18,1.045
	c-1.045,0-3.135,1.045-3.135,1.045l-3.135,2.09l-42.841,25.078l-29.257,16.718l29.257,16.718l42.841,25.078l3.135,2.09
	c1.045,1.045,2.09,1.045,3.135,1.045C36.682,647.776,37.727,647.776,39.816,647.776z"/>
<g>
	<path style="fill:#043363;" d="M29.367,584.037h321.829v-27.167H39.816c-1.045,0-3.135,0-4.18,1.045
		c-1.045,0-3.135,1.045-3.135,1.045l-3.135,2.09V584.037z"/>
	<path style="fill:#043363;" d="M39.816,647.776h311.38v-27.167H29.367v22.988l3.135,2.09c1.045,1.045,2.09,1.045,3.135,1.045
		C36.682,647.776,37.727,647.776,39.816,647.776z"/>
</g>
<polygon style="fill:#CCCBCB;" points="-17.266,619.563 -17.266,585.082 -43.776,602.845 "/>
<path style="fill:#F86407;" d="M436.878,556.869h-58.514v90.906h58.514c11.494,0,20.898-9.404,20.898-20.898v-49.11
	C457.776,566.273,448.371,556.869,436.878,556.869z"/>
<rect x="29.367" y="584.037" style="fill:#CCCBCB;" width="321.829" height="36.571"/>
<g>
	<rect x="350.36" y="556.347" style="fill:#F2F2F2;" width="28.212" height="90.906"/>
	<path style="fill:#F2F2F2;" d="M436.878,546.42H-22.878c-11.494,0-20.898-9.404-20.898-20.898V225.637h501.551v299.886
		C457.776,537.016,448.371,546.42,436.878,546.42z"/>
</g>
<rect x="-17.266" y="251.09" style="fill:#FFFFFF;" width="449.306" height="268.539"/>
<rect x="-43.776" y="146.224" style="fill:#CCCBCB;" width="501.551" height="79.412"/>
<g>
	<circle style="fill:#F2F2F2;" cx="79.522" cy="185.931" r="13.584"/>
	<circle style="fill:#F2F2F2;" cx="34.592" cy="185.931" r="13.584"/>
</g>
<g>
	<circle style="fill:#F86407;" cx="-9.294" cy="185.931" r="13.584"/>
	<path style="fill:#F86407;" d="M423.294,172.347h-202.71c-7.314,0-13.584,6.269-13.584,13.584c0,7.314,6.269,13.584,13.584,13.584
		h203.755c7.314,0,13.584-6.269,13.584-13.584C436.878,178.616,430.608,172.347,423.294,172.347z"/>
</g>
<g>
	<rect x="158.935" y="272.657" style="fill:#CCCBCB;" width="251.82" height="24.033"/>
	<rect x="158.935" y="324.902" style="fill:#CCCBCB;" width="251.82" height="24.033"/>
	<rect x="158.935" y="376.102" style="fill:#CCCBCB;" width="251.82" height="24.033"/>
	<rect x="3.245" y="428.347" style="fill:#CCCBCB;" width="407.51" height="24.033"/>
	<rect x="3.245" y="480.592" style="fill:#CCCBCB;" width="407.51" height="24.033"/>
</g>
<path style="fill:#043363;" d="M73.253,272.657H47.131L3.245,400.135h28.212l12.539-36.571h32.392l12.539,36.571h29.257
	L73.253,272.657z M51.31,340.576l8.359-26.122v-1.045v1.045l8.359,25.078H51.31V340.576z"/>
</svg>
